# xmcd CD database file
#
# Track frame offsets:
#	150
#	24499
#	44725
#	62973
#	83099
#	103323
#	119997
#	139810
#	154807
#	174579
#	192898
#	213478
#	230431
#	250926
#	272263
#	294734
#	312670
#
# Disc length: 4418 seconds
#
# Revision: 0
# Processed by: cddbd v1.5.2PL0 Copyright (c) Steve Scherf et al.
# Submitted via: CDex 1.51
#
DISCID=0a114011
DTITLE=Sunny -  Chinese Female Artist - Unknown - cd A
DYEAR=2010
DGENRE=Jazz
TTITLE0=Enticement Street
TTITLE1=Is Content
TTITLE2=Don't Burst Inot Tears Again For Him
TTITLE3=Not If
TTITLE4=The Effort Is Hugging
TTITLE5=Vs
TTITLE6=Love Song
TTITLE7=Bagpipe
TTITLE8=The Reason That Love Is Love
TTITLE9=Good Friend VS
TTITLE10=Today Valentine Day
TTITLE11=Man Man Is Loves
TTITLE12=Will Breathe Pain
TTITLE13=If One Day
TTITLE14=Silk Road
TTITLE15=Worship
TTITLE16=Tla Vuy
EXTD=YEAR: 2010
EXTT0=
EXTT1=
EXTT2=
EXTT3=
EXTT4=
EXTT5=
EXTT6=
EXTT7=
EXTT8=
EXTT9=
EXTT10=
EXTT11=
EXTT12=
EXTT13=
EXTT14=
EXTT15=
EXTT16=
PLAYORDER=
